<svg width="87" height="35" viewBox="0 0 87 35" fill="none" xmlns="http://www.w3.org/2000/svg">
<path d="M3.69866 2.69048C4.23369 2.02381 5.09438 1.11905 5.65267 0.738095C6.1877 0.333333 6.72273 0 6.83904 0C6.95535 0 7.09492 0.357143 7.16471 0.785715C7.21123 1.19048 7.58342 2.57143 7.95562 3.80952C8.35107 5.04762 9.09546 7.04762 9.63048 8.21429C10.1655 9.38095 11.0495 11.1191 11.5612 12.0238C12.073 12.9286 13.0267 14.381 13.6315 15.2381C14.2596 16.0952 15.1901 17.2143 15.7019 17.7381C16.2136 18.2857 17.7955 19.5 21.75 22.1905L22.5642 21.7143C23.0062 21.4524 23.9599 21.1191 24.6578 20.9524C25.3556 20.7857 26.4024 20.7143 26.984 20.7857C27.5655 20.8571 28.2866 21.1191 28.6123 21.381C28.938 21.6191 29.2171 22.0238 29.2636 22.2381C29.2869 22.5 29.1241 22.6191 28.6821 22.6191C28.3099 22.6429 27.6818 22.8333 27.2864 23.0476C26.8676 23.2619 25.9837 24.1905 25.3091 25.1191C24.6345 26.0238 23.704 27.0238 23.262 27.3095C22.8201 27.6191 21.3313 28.1191 19.9588 28.4524C18.5631 28.7857 16.6789 29.1667 15.7717 29.3095C14.8412 29.4524 13.3291 29.7143 12.4452 29.9048C11.3984 30.1191 10.3981 30.5 9.65374 31C8.86283 31.5238 8.32781 32.1191 7.97888 32.8572C7.69973 33.4524 7.42059 34.0952 7.37406 34.2857C7.28102 34.5952 7.02513 34.5952 5.67594 34.381C4.79198 34.2381 3.69866 33.9524 3.25668 33.7619C2.81471 33.5714 2.0238 33.0476 1.53529 32.5952C1.02353 32.1429 0.488503 31.4286 0.302406 31.0238C0.139572 30.5952 0 29.4524 0 26.7857H4.74545C7.3508 26.7857 9.58396 26.6905 9.70027 26.5714C9.79332 26.4762 9.67701 26.2619 9.44439 26.0952C9.1885 25.9524 8.46738 25.4048 7.81604 24.881C7.16471 24.3333 6.07139 23.1667 5.39679 22.2619C4.72219 21.3333 3.65214 19.5238 3.04733 18.2143C2.41925 16.9048 1.72139 15.2381 1.53529 14.5238C1.32594 13.8095 1.09332 12.4762 1.00027 11.5476C0.907219 10.5476 0.977005 9.26191 1.13984 8.33334C1.30267 7.47619 1.72139 6.14286 2.09358 5.35714C2.46578 4.57143 3.1869 3.38095 3.69866 2.69048Z" fill="white"/>
<path d="M23.262 28.4524C23.9134 28.119 24.7973 27.3809 25.2626 26.8095L26.1 25.7381L27.519 26.4762C28.3099 26.8809 29.38 27.3571 29.8917 27.5476C30.4035 27.7381 32.4738 28.2619 34.4976 28.7143C36.4981 29.1667 38.2195 29.5238 38.3126 29.5238C38.4056 29.5238 38.3824 29.619 38.2428 29.7381C38.1265 29.8571 36.9401 30.1667 35.5909 30.4524C34.2417 30.7143 31.7992 31.1667 30.1243 31.4524C27.7749 31.8333 26.4722 31.9286 24.3088 31.8333C22.4013 31.7619 20.9126 31.5714 19.6564 31.1905C18.6329 30.9048 17.7024 30.5952 17.6094 30.5C17.5163 30.4286 17.5628 30.2381 17.7257 30.0952C17.8885 29.9524 18.9353 29.6667 20.0751 29.4524C21.1917 29.2143 22.634 28.7857 23.262 28.4524Z" fill="white"/>
<path d="M55.5963 34.7619V22.1429H59.0856V34.7619H55.5963Z" fill="white"/>
<path d="M42.1043 34.7619V22.1429H45.5936V26.6667H49.5481V22.1429H53.0374V34.7619H49.5481V30H45.5936V34.7619H42.1043Z" fill="white"/>
<path d="M63.6217 10.3571C62.412 8.14286 61.4118 6.28572 61.4118 6.2381C61.435 6.19048 62.2957 6.19048 65.25 6.30953L66.2968 8.38096C66.8783 9.54762 67.4366 10.4762 67.5762 10.4762C67.7158 10.4762 68.2275 9.59524 68.7393 8.52381C69.2511 7.42857 69.7628 6.47619 69.9024 6.38095C70.042 6.28572 70.8561 6.19048 71.7634 6.19048C72.6706 6.19048 73.4615 6.2381 73.5545 6.30953C73.6708 6.38096 73.4382 6.92857 73.0893 7.57143C72.7171 8.19048 71.7401 9.97619 69.3441 14.4048L69.3208 18.8095H65.8315V14.4048L63.6217 10.3571Z" fill="white"/>
<path d="M52.1767 12.7381C52.1767 9.4762 52.2 6.64287 52.2465 6.4762C52.3163 6.26191 52.8048 6.19048 55.6428 6.30953L55.5962 15.4762H60.7139V18.8095L52.2233 18.6905L52.1767 12.7381Z" fill="white"/>
<path d="M42.1043 18.8095V6.19048H50.246L50.1297 9.40477L45.5936 9.52381V11.9048H49.7807V15L45.7099 15.1191L45.5936 18.8095H42.1043Z" fill="white"/>
<path d="M64.0869 22.9048C64.4591 22.7143 65.2035 22.4048 65.7152 22.2143C66.2968 22.0238 67.2273 21.9524 68.1578 22.0238C69.0882 22.0952 70.1118 22.3571 70.8329 22.7143C71.461 23.0476 72.2286 23.5476 72.4845 23.8571C72.7636 24.1667 73.2056 24.8333 73.9733 26.3095L72.1821 26.381C70.577 26.4286 70.2746 26.381 69.5535 25.8333C68.9952 25.4286 68.4369 25.2381 67.739 25.2381C67.204 25.2381 66.4364 25.4048 66.0642 25.5952C65.692 25.7857 65.2035 26.2857 65.0174 26.6667C64.8313 27.0476 64.6684 27.881 64.6684 28.5C64.6684 29.3095 64.808 29.881 65.2035 30.4762C65.5524 31.0238 66.0409 31.4048 66.6457 31.619C67.2273 31.8095 67.9019 31.8571 68.3904 31.7381C68.8324 31.6429 69.4372 31.381 69.7163 31.1429C70.0187 30.9048 70.2513 30.5476 70.2513 30.3571C70.2513 30.0714 69.9257 30 66.9947 30L67.111 27.5H74.0896L74.1594 28.4524C74.1826 28.9762 74.0663 29.9762 73.857 30.6429C73.6243 31.5476 73.1824 32.2381 72.4147 33.0714C71.5773 33.9286 70.9725 34.3095 70.0187 34.619C69.3209 34.8333 68.2741 35 67.6925 35C67.111 35 66.1107 34.8571 65.4826 34.6667C64.8313 34.4524 63.8543 33.9048 63.296 33.4048C62.7377 32.9048 62.0631 32.0714 61.784 31.5476C61.3885 30.7857 61.2955 30.1667 61.2955 28.4524C61.2955 26.8095 61.4118 26.119 61.7374 25.4762C61.9701 25.0238 62.4353 24.3333 62.7842 23.9762C63.1099 23.5952 63.7147 23.119 64.0869 22.9048Z" fill="white"/>
<path d="M76.0668 34.7619V22.1429H79.5561V26.6667H83.5107V22.1429L86.8837 22.2619L87 34.7619H83.5107L83.3944 30.1191L79.5561 30V34.7619H76.0668Z" fill="white"/>
</svg>
